<svg xmlns="http://www.w3.org/2000/svg" viewBox="0 0 500 500"><g id="freepik--character-1--inject-187"><g id="freepik--Laptop--inject-187"><path d="M74.33,371.49c0,3.37,2.52,5.53,5.63,7.32l127.42,73.57a12.41,12.41,0,0,0,11.26,0L424.21,333.7c3.11-1.8,5.63-4.11,5.63-7.48s-2.52-5.45-5.63-7.24L296.79,245.41a12.41,12.41,0,0,0-11.26,0L80,364.09C76.85,365.89,74.33,368.12,74.33,371.49Z" style="fill:#37474f"></path><path d="M80,370.59l127.42,73.57a12.41,12.41,0,0,0,11.26,0L424.21,325.48c3.11-1.8,3.11-4.71,0-6.5L296.79,245.41a12.41,12.41,0,0,0-11.26,0L80,364.09C76.85,365.89,76.85,368.8,80,370.59Z" style="fill:#455a64"></path><path d="M213,445.52v8.2a11.57,11.57,0,0,1-5.63-1.33L80,378.81c-3.11-1.79-5.63-3.95-5.63-7.32,0-3.16,2.26-5.36,5.19-7.15-2.42,1.71-2.46,4.58.44,6.25l127.43,73.58A11.57,11.57,0,0,0,213,445.52Z" style="fill:#263238"></path><path d="M97.34,365.05,286.25,256a5.91,5.91,0,0,1,5.31,0l6.88,3.86c1.47.85,1.47,2.22,0,3.07L109.5,372a5.83,5.83,0,0,1-5.3,0l-6.86-3.84C95.88,367.27,95.88,365.89,97.34,365.05Z" style="fill:#263238"></path><path d="M115.9,376,304.8,266.92a5.43,5.43,0,0,1,4.85-.26l49.18,28.39c1.21.7,1,1.95-.46,2.8L169.68,406.77a5.46,5.46,0,0,1-4.86.27l-49.38-28.26C114.23,378.09,114.43,376.84,115.9,376Z" style="fill:#263238"></path><path d="M279.59,312.73l5.91-3.41c.25-.15.28-.37.05-.5l-5.66-3.27a1,1,0,0,0-.85,0L273.12,309c-.25.14-.27.37-.05.49l5.66,3.27A.94.94,0,0,0,279.59,312.73ZM271,300.92,265,304.33c-.25.15-.28.37-.05.5l5.65,3.26a1,1,0,0,0,.86,0l5.92-3.42c.25-.14.27-.37.05-.5l-5.66-3.26A.94.94,0,0,0,271,300.92Zm-19.11,11-10,5.78c-.25.14-.27.37-.05.49l5.66,3.27a.94.94,0,0,0,.86,0l10-5.78c.25-.14.27-.36.05-.49l-5.66-3.27A.94.94,0,0,0,251.84,312Zm10.47-6-5.92,3.41c-.25.15-.27.37-.05.5l5.66,3.27a1,1,0,0,0,.86,0l5.91-3.42c.25-.14.28-.37.05-.49l-5.65-3.27A.94.94,0,0,0,262.31,305.91ZM239.1,319.3l-5.91,3.42c-.25.14-.28.37-.05.5l5.66,3.26a.94.94,0,0,0,.86,0l5.91-3.41c.25-.15.27-.37.05-.5L240,319.28A1,1,0,0,0,239.1,319.3Zm-8.64,5-5.92,3.41c-.25.15-.27.37,0,.5l5.66,3.26a.94.94,0,0,0,.86,0l5.92-3.41c.25-.15.27-.37,0-.5l-5.66-3.26A.94.94,0,0,0,230.46,324.3Zm22.18,13.33,5.91-3.42c.25-.14.28-.37.05-.49l-5.66-3.27a.92.92,0,0,0-.85,0l-5.92,3.41c-.25.15-.27.37,0,.5l5.66,3.27A1,1,0,0,0,252.64,337.63Zm-8.65,5,5.92-3.42c.25-.14.27-.36.05-.49l-5.66-3.27a.94.94,0,0,0-.86,0l-5.91,3.41c-.26.15-.28.37-.05.5l5.65,3.27A1,1,0,0,0,244,342.62Zm-8.64,5,5.91-3.42c.25-.14.28-.36.05-.49l-5.65-3.27a.94.94,0,0,0-.86,0l-5.92,3.41c-.25.15-.27.37,0,.5l5.66,3.27A1,1,0,0,0,235.35,347.61Zm-8.65,5,5.92-3.42c.25-.14.27-.36,0-.49L227,345.42a1,1,0,0,0-.86,0l-5.91,3.42c-.25.14-.28.36-.05.49l5.65,3.27A1,1,0,0,0,226.7,352.6Zm44.24-34.88,5.92-3.41c.25-.15.27-.37.05-.5l-5.66-3.26a1,1,0,0,0-.86,0L264.48,314c-.26.14-.28.37-.06.5l5.66,3.26A.94.94,0,0,0,270.94,317.72Zm-9.66,14.92,13.2-7.62c.25-.15.27-.37,0-.5l-13.74-7.93a.94.94,0,0,0-.86,0l-6.83,3.94c-.25.14-.27.36,0,.49l7.28,4.2c.22.13.2.35-.06.5l-5.45,3.15c-.26.15-.28.37-.06.5l5.66,3.26A1,1,0,0,0,261.28,332.64Zm-39.47-3.35-5.91,3.41c-.25.15-.28.37-.05.5l5.66,3.26a1,1,0,0,0,.86,0l5.91-3.42c.25-.14.27-.37.05-.5l-5.66-3.26A.94.94,0,0,0,221.81,329.29Zm-8.64,5-5.92,3.41c-.25.15-.27.37-.05.5l5.66,3.27a1,1,0,0,0,.86,0l5.92-3.42c.25-.14.27-.37.05-.49L214,334.25A.94.94,0,0,0,213.17,334.28Zm-47.84,53.29a1,1,0,0,0,.86,0l5.92-3.42c.25-.14.27-.37,0-.49l-5.66-3.27a.94.94,0,0,0-.86,0l-5.92,3.41c-.25.15-.27.37-.05.5ZM144,374.21l-5.91,3.41c-.25.15-.28.37,0,.5l5.65,3.26a.94.94,0,0,0,.86,0l5.92-3.41c.25-.15.27-.37.05-.5l-5.66-3.26A.94.94,0,0,0,144,374.21Zm11,10a.94.94,0,0,0,.86,0l5.92-3.41c.25-.15.27-.37.05-.5L156.14,377a1,1,0,0,0-.86,0l-5.91,3.42c-.26.14-.28.37-.06.5Zm23.85,5.37,5.92-3.42c.25-.14.27-.37,0-.49l-5.66-3.27a.94.94,0,0,0-.86,0l-5.91,3.41c-.25.15-.28.37-.05.5l5.66,3.27A1,1,0,0,0,178.82,389.58Zm-9.5,5a1,1,0,0,0,.86,0l5.91-3.42c.26-.14.28-.36.06-.49l-5.66-3.27a.94.94,0,0,0-.86,0l-5.92,3.41c-.25.15-.27.37-.05.5Zm-16.66-25.39-5.92,3.42c-.25.14-.27.37-.05.5l5.66,3.26a.94.94,0,0,0,.86,0l5.91-3.41c.25-.15.28-.37,0-.5l-5.65-3.26A1,1,0,0,0,152.66,369.21Zm43.22-24.95L190,347.67c-.25.15-.27.37-.05.5l5.66,3.27a1,1,0,0,0,.86,0l5.92-3.42c.25-.14.27-.36.05-.49l-5.66-3.27A.94.94,0,0,0,195.88,344.26Zm-34.58,20-5.91,3.42c-.26.14-.28.37,0,.49L161,371.4a.94.94,0,0,0,.86,0l5.92-3.41c.25-.15.27-.37,0-.5l-5.66-3.27A1,1,0,0,0,161.3,364.22Zm43.22-25-5.91,3.41c-.25.15-.27.37-.05.5l5.66,3.27a1,1,0,0,0,.86,0L211,343c.25-.14.27-.36,0-.49l-5.66-3.27A.94.94,0,0,0,204.52,339.27Zm-17.29,10-5.91,3.42c-.25.14-.27.36,0,.49l5.66,3.27a1,1,0,0,0,.86,0L193.7,353c.25-.14.28-.36.05-.49l-5.66-3.27A1,1,0,0,0,187.23,349.25Zm-8.64,5-5.91,3.42c-.26.14-.28.36-.06.49l5.66,3.27a.94.94,0,0,0,.86,0l5.92-3.41c.25-.15.27-.37.05-.5l-5.66-3.27A1,1,0,0,0,178.59,354.24Zm-8.64,5L164,362.65c-.25.14-.27.36-.05.49l5.66,3.27a.94.94,0,0,0,.86,0l5.91-3.41c.25-.15.28-.37.05-.5l-5.66-3.27A1,1,0,0,0,170,359.23Zm39.46,3.35,5.92-3.41c.25-.15.27-.37,0-.5l-5.66-3.27a1,1,0,0,0-.86,0L203,358.85c-.25.14-.28.36,0,.49l5.65,3.27A.94.94,0,0,0,209.41,362.58Zm80.65-72.7-5.91,3.42c-.26.14-.28.37,0,.49l5.65,3.27a.94.94,0,0,0,.86,0l5.92-3.41c.25-.15.27-.37.05-.5l-5.66-3.27A1,1,0,0,0,290.06,289.88Zm-10.46,6.05-5.92,3.41c-.25.15-.27.37-.05.5l5.66,3.26a.94.94,0,0,0,.86,0l5.91-3.41c.25-.15.28-.37.05-.5l-5.65-3.26A.94.94,0,0,0,279.6,295.93Zm19.11-11-5.92,3.42c-.25.14-.27.36-.05.49l5.66,3.27a.94.94,0,0,0,.86,0l5.91-3.41c.25-.15.28-.37.05-.5l-5.65-3.27A1,1,0,0,0,298.71,284.89Zm-47.79,44.39,5.92-3.41c.25-.15.27-.37.05-.5l-5.66-3.27a1,1,0,0,0-.86,0l-5.91,3.42c-.25.14-.28.36-.05.49l5.65,3.27A.94.94,0,0,0,250.92,329.28Zm57.29-49.41a1,1,0,0,0-.86,0l-5.91,3.42c-.26.14-.28.36-.06.49l5.66,3.27a.94.94,0,0,0,.86,0l5.92-3.41c.25-.15.27-.37.05-.5Zm-90.15,77.72,5.91-3.41c.26-.15.28-.37.05-.5l-5.65-3.27a1,1,0,0,0-.86,0l-5.92,3.42c-.25.14-.27.36-.05.49l5.66,3.27A.94.94,0,0,0,218.06,357.59Zm106-61.21L330,293c.26-.15.28-.37.06-.5l-5.66-3.26a.94.94,0,0,0-.86,0l-5.92,3.41c-.25.15-.27.37-.05.5l5.66,3.26A.94.94,0,0,0,324.07,296.38Zm-16.73.33,5.92-3.42c.25-.14.27-.36.05-.49l-5.66-3.27a1,1,0,0,0-.86,0L300.87,293c-.25.15-.27.37-.05.5l5.66,3.27A1,1,0,0,0,307.34,296.71Zm9-12.17a.94.94,0,0,0-.86,0L309.52,288c-.25.15-.28.37,0,.5l5.66,3.27a1,1,0,0,0,.86,0l5.91-3.42c.25-.14.28-.36.05-.49Zm1.82-1.05,13.75,7.93a.92.92,0,0,0,.85,0l5.92-3.41c.25-.15.27-.37.05-.5l-13.74-7.93a.94.94,0,0,0-.86,0L318.16,283C317.91,283.14,317.89,283.36,318.11,283.49Zm-20,11.06L292.23,298c-.25.14-.27.36-.05.49l5.66,3.27a1,1,0,0,0,.86,0l5.91-3.42c.25-.14.28-.36.05-.49L299,294.52A1,1,0,0,0,298.14,294.55Zm-65.06,37.56-5.91,3.42c-.25.14-.28.37,0,.5l5.66,3.26a.92.92,0,0,0,.85,0l5.92-3.41c.25-.15.27-.37,0-.5l-5.66-3.26A1,1,0,0,0,233.08,332.11Zm81.49-30.7a1,1,0,0,0,.86,0l5.91-3.42c.25-.14.27-.37.05-.49l-5.66-3.27a.94.94,0,0,0-.86,0L309,297.64c-.25.15-.28.37,0,.5Zm-72.84,25.71-5.92,3.42c-.25.14-.27.37-.05.49l5.66,3.27a.94.94,0,0,0,.86,0l5.91-3.41c.26-.15.28-.37.05-.5l-5.65-3.26A1,1,0,0,0,241.73,327.12ZM174,382.57a1,1,0,0,0,.86,0l5.91-3.42c.25-.14.27-.37.05-.5l-5.66-3.26a.94.94,0,0,0-.86,0l-5.91,3.41c-.25.15-.28.37-.05.5ZM163.92,372,158,375.46c-.25.14-.27.37,0,.49l5.66,3.27a.94.94,0,0,0,.86,0l5.91-3.41c.25-.15.28-.37.05-.5L164.78,372A1,1,0,0,0,163.92,372Zm19.56,5.51,5.91-3.41c.26-.15.28-.37.06-.5l-5.66-3.26a.94.94,0,0,0-.86,0L177,373.82c-.25.15-.27.37,0,.5l5.66,3.26A.94.94,0,0,0,183.48,377.55Zm8.64-5,5.92-3.41c.25-.15.27-.37.05-.5l-5.66-3.26a1,1,0,0,0-.86,0l-5.91,3.42c-.25.14-.28.37,0,.5l5.66,3.26A.92.92,0,0,0,192.12,372.56Zm8.65-5,5.91-3.41c.26-.15.28-.37.06-.5l-5.66-3.27a1,1,0,0,0-.86,0l-5.92,3.42c-.25.14-.27.37-.05.49l5.66,3.27A.94.94,0,0,0,200.77,367.57Zm-28.2-.52-5.92,3.42c-.25.14-.27.36-.05.49l5.66,3.27a.94.94,0,0,0,.86,0l5.92-3.41c.25-.15.27-.37.05-.5L173.43,367A1,1,0,0,0,172.57,367.05Zm8.64-5-5.91,3.42c-.25.14-.28.36-.05.49l5.66,3.27a1,1,0,0,0,.86,0l5.91-3.42c.25-.14.28-.36,0-.49L182.07,362A1,1,0,0,0,181.21,362.06Zm34.58-20-5.91,3.41c-.25.15-.28.37,0,.5l5.66,3.26a.94.94,0,0,0,.85,0l5.92-3.42c.25-.14.27-.37.05-.5l-5.66-3.26A.94.94,0,0,0,215.79,342.1Zm-8.64,5-5.92,3.41c-.25.15-.27.37,0,.5l5.66,3.27a1,1,0,0,0,.86,0l5.91-3.42c.26-.14.28-.37.06-.49L208,347.06A.94.94,0,0,0,207.15,347.09Zm17.29-10-5.92,3.41c-.25.15-.27.37-.05.5l5.66,3.26a.94.94,0,0,0,.86,0l5.91-3.41c.26-.15.28-.37,0-.5l-5.65-3.26A.94.94,0,0,0,224.44,337.11Zm-34.58,20-5.92,3.42c-.25.14-.27.36-.05.49l5.66,3.27a1,1,0,0,0,.86,0l5.92-3.42c.25-.14.27-.36,0-.49L190.72,357A.94.94,0,0,0,189.86,357.07Zm8.64-5-5.91,3.41c-.25.15-.28.37-.05.5l5.66,3.27a1,1,0,0,0,.86,0l5.91-3.42c.25-.14.27-.36.05-.49l-5.66-3.27A.94.94,0,0,0,198.5,352.08Zm-11,32.51,5.91-3.42c.26-.14.28-.37.05-.5l-5.65-3.26a.94.94,0,0,0-.86,0L181,380.85c-.25.15-.27.37-.05.5l5.66,3.27A1,1,0,0,0,187.47,384.59Zm-45.59-2.16-5.65-3.26a.94.94,0,0,0-.86,0l-5.92,3.41c-.25.15-.27.37,0,.5l5.66,3.26a1,1,0,0,0,.86,0l5.91-3.42C142.09,382.79,142.11,382.56,141.88,382.43Zm11.27,2.83L147.49,382a.92.92,0,0,0-.85,0l-9.1,5.25c-.26.14-.28.37,0,.49l5.65,3.27a.94.94,0,0,0,.86,0l9.1-5.25C153.35,385.61,153.38,385.39,153.15,385.26ZM133.44,376l-5.66-3.26a1,1,0,0,0-.86,0L119.64,377c-.25.14-.27.36,0,.49l5.66,3.27a.94.94,0,0,0,.86,0l7.28-4.2C133.64,376.33,133.66,376.11,133.44,376Zm5.58-3.22a.94.94,0,0,0,.86,0l5.91-3.41c.25-.15.28-.37.05-.5l-5.65-3.27a1,1,0,0,0-.86,0L133.41,369c-.25.14-.27.36,0,.49Zm24.49,15.86-5.66-3.27a.94.94,0,0,0-.86,0L145.62,392c-.25.14-.27.36-.05.49l5.66,3.27a1,1,0,0,0,.86,0l11.37-6.57C163.71,389,163.74,388.75,163.51,388.62Zm4,7-5.66-3.27a.94.94,0,0,0-.86,0l-7.28,4.2c-.25.15-.27.37,0,.5l5.66,3.27a1,1,0,0,0,.86,0l7.28-4.21C167.7,396,167.72,395.78,167.5,395.65Zm35.79-60a.94.94,0,0,0,.86,0l5.92-3.41c.25-.15.27-.37.05-.5l-5.66-3.27a1,1,0,0,0-.86,0l-5.91,3.42c-.26.14-.28.37-.06.49Zm-17.29,10a.94.94,0,0,0,.86,0l5.92-3.41c.25-.15.27-.37.05-.5l-5.66-3.26a.94.94,0,0,0-.86,0l-5.91,3.41c-.26.15-.28.37-.06.5Zm-38.34,22.14a1,1,0,0,0,.86,0l5.92-3.42c.25-.14.27-.36.05-.49l-5.66-3.27a1,1,0,0,0-.86,0L142.06,364c-.25.14-.28.36-.05.49Zm47-27.13a.94.94,0,0,0,.86,0l5.91-3.41c.25-.15.28-.37.05-.5l-5.66-3.27a1,1,0,0,0-.85,0L189,336.88c-.25.14-.27.37,0,.5Zm-17.29,10a.94.94,0,0,0,.86,0l5.91-3.41c.25-.14.28-.37.05-.5l-5.65-3.26a.94.94,0,0,0-.86,0l-5.92,3.41c-.25.15-.27.37-.05.5ZM171.75,396a.94.94,0,0,0-.86,0l-9.1,5.25c-.25.15-.28.37,0,.5l5.65,3.26a.94.94,0,0,0,.86,0l9.1-5.25c.25-.14.28-.37.05-.5ZM165,357.79a1,1,0,0,0,.86,0l5.92-3.42c.25-.14.27-.36.05-.49l-5.66-3.27a.94.94,0,0,0-.86,0L159.35,354c-.26.15-.28.37-.06.5Zm-8.64,5a1,1,0,0,0,.86,0l5.91-3.42c.25-.14.28-.36,0-.49l-5.66-3.27a.92.92,0,0,0-.85,0L150.7,359c-.25.15-.27.37,0,.5ZM331.9,303.53a1,1,0,0,0-.86,0L316.48,312c-.25.14-.27.36-.05.49l5.66,3.27a.94.94,0,0,0,.86,0l14.56-8.4c.25-.15.27-.37.05-.5Zm-19.11,11a1,1,0,0,0-.86,0L306,318c-.25.14-.28.37,0,.5l5.65,3.26a.94.94,0,0,0,.86,0l5.92-3.41c.25-.15.27-.37.05-.5Zm-116.68,65,5.92-3.41c.25-.15.27-.37.05-.5l-5.66-3.26a.94.94,0,0,0-.86,0l-5.91,3.41c-.25.15-.28.37-.05.5l5.65,3.26A.94.94,0,0,0,196.11,379.59Zm99.39-55a.94.94,0,0,0-.86,0L288.73,328c-.25.15-.28.37-.05.5l5.65,3.26a1,1,0,0,0,.86,0l5.92-3.42c.25-.15.27-.37.05-.5Zm45-26a1,1,0,0,0-.85,0L333.77,302c-.25.14-.27.36,0,.49l5.66,3.27a1,1,0,0,0,.86,0l5.91-3.42c.25-.14.28-.36.05-.49Zm14.31-1.72-13.74-7.94a1,1,0,0,0-.86,0l-5.92,3.42c-.25.14-.27.36-.05.49L348,300.76a1,1,0,0,0,.86,0l5.92-3.42C355.05,297.17,355.07,297,354.85,296.82ZM263.2,343.2a.94.94,0,0,0-.86,0l-7.28,4.2c-.25.14-.28.37-.05.5l5.66,3.26a.94.94,0,0,0,.86,0l7.28-4.2c.25-.14.27-.37.05-.5ZM285,330.59a.94.94,0,0,0-.86,0l-9.1,5.25c-.25.15-.28.37-.05.5l5.66,3.26a.94.94,0,0,0,.85,0l9.1-5.26c.26-.14.28-.37.05-.49Zm-41.86,24.17a1,1,0,0,0-.86,0l-48.68,28.11c-.26.15-.28.37-.06.5l5.66,3.27a1,1,0,0,0,.86,0l48.69-28.11c.25-.15.27-.37.05-.5Zm-51.41,29.68a.94.94,0,0,0-.86,0l-7.28,4.2c-.26.15-.28.37,0,.5l5.65,3.26a1,1,0,0,0,.86,0l7.28-4.21c.25-.14.28-.36,0-.49ZM253.19,349a.94.94,0,0,0-.86,0l-7.28,4.2c-.25.14-.28.37-.05.49l5.66,3.27a.94.94,0,0,0,.86,0l7.28-4.2c.25-.15.27-.37.05-.5Zm-71.43,41.24a.94.94,0,0,0-.86,0l-7.28,4.2c-.26.15-.28.37-.05.5l5.65,3.26a.94.94,0,0,0,.86,0l7.28-4.2c.25-.14.28-.37,0-.49Zm91.45-52.8a.94.94,0,0,0-.86,0l-7.28,4.2c-.25.15-.28.37-.05.5l5.66,3.26a.92.92,0,0,0,.85,0l7.29-4.2c.25-.14.27-.37.05-.49Zm30.94-17.86a.94.94,0,0,0-.86,0L297.37,323c-.25.15-.27.37-.05.5l5.66,3.26a.94.94,0,0,0,.86,0l5.91-3.41c.26-.15.28-.37.05-.5ZM323.51,306l5.91-3.41c.26-.15.28-.37.05-.5l-5.65-3.26a1,1,0,0,0-.86,0L317,302.31c-.25.14-.27.37-.05.5l5.66,3.26A.94.94,0,0,0,323.51,306Zm-35.28,1.7,5.92-3.41c.25-.15.27-.37.05-.5l-5.66-3.27a1,1,0,0,0-.86,0L281.77,304c-.26.14-.28.36-.06.49l5.66,3.27A.94.94,0,0,0,288.23,307.74Zm-23,31.93,17.29-10c.25-.14.27-.36.05-.49L277,325.92a1,1,0,0,0-.86,0l-17.29,10c-.25.15-.27.37-.05.5l5.66,3.27A1,1,0,0,0,265.27,339.67ZM314,311.06a.92.92,0,0,0,.85,0l5.92-3.41c.25-.15.27-.37.05-.5l-5.66-3.26a.94.94,0,0,0-.86,0l-5.91,3.41c-.25.15-.28.37,0,.5Zm-7.23-4.69L312.7,303c.25-.14.27-.37.05-.49l-5.66-3.27a.94.94,0,0,0-.86,0l-5.92,3.41c-.25.15-.27.37-.05.5l5.66,3.27A1,1,0,0,0,306.78,306.37Zm-50.15,38.29,5.91-3.42c.25-.14.28-.36,0-.49l-5.66-3.27a.94.94,0,0,0-.86,0l-5.91,3.41c-.25.15-.27.37,0,.5l5.66,3.27A1,1,0,0,0,256.63,344.66ZM294.9,322.1a1,1,0,0,0,.86,0l5.91-3.42c.25-.14.27-.37.05-.49l-5.66-3.27a.94.94,0,0,0-.86,0l-5.91,3.41c-.25.15-.28.37-.05.5Zm-81.5,47.51,5.92-3.41c.25-.15.27-.37.05-.5l-5.66-3.27a1,1,0,0,0-.86,0l-5.91,3.42c-.26.14-.28.37-.06.49l5.66,3.27A.94.94,0,0,0,213.4,369.61Zm8.65-5,5.91-3.41c.25-.15.28-.37,0-.5l-5.66-3.27a1,1,0,0,0-.85,0l-5.92,3.42c-.25.14-.27.37-.05.49l5.66,3.27A.94.94,0,0,0,222.05,364.62Zm-17.29,10,5.91-3.41c.25-.15.28-.37.05-.5l-5.65-3.26a.94.94,0,0,0-.86,0l-5.92,3.41c-.25.14-.27.37,0,.5l5.66,3.26A.94.94,0,0,0,204.76,374.6Zm34.58-20,5.91-3.41c.25-.15.28-.37.05-.5l-5.66-3.27a1,1,0,0,0-.86,0l-5.91,3.42c-.25.14-.27.36-.05.49l5.66,3.27A1,1,0,0,0,239.34,354.64Zm-8.65,5,5.92-3.41c.25-.15.27-.37,0-.5L231,352.45a1,1,0,0,0-.86,0l-5.91,3.42c-.26.14-.28.36-.06.49l5.66,3.27A.94.94,0,0,0,230.69,359.63Zm17.29-10,5.92-3.42c.25-.14.27-.36,0-.49l-5.66-3.27a.94.94,0,0,0-.86,0l-5.92,3.41c-.25.15-.27.37,0,.5l5.66,3.27A1,1,0,0,0,248,349.65Zm47.18-69.43a1,1,0,0,0,.86,0l5.91-3.42c.25-.14.27-.36.05-.49l-1.51-.87a.92.92,0,0,0-.85,0l-5.92,3.41c-.25.15-.27.37-.05.5Zm-43,27.2a.94.94,0,0,0,.86,0L259,304c.25-.15.28-.37.05-.5l-5.65-3.27a1,1,0,0,0-.86,0l-5.92,3.42c-.25.14-.27.37-.05.49Zm17.29-10a1,1,0,0,0,.86,0l5.91-3.41c.25-.15.28-.37.05-.5l-5.66-3.27a1,1,0,0,0-.85,0l-5.92,3.42c-.25.14-.27.36-.05.49Zm-27.85,16.08a1,1,0,0,0,.86,0l5.92-3.42c.25-.14.27-.37.05-.49l-5.66-3.27a.94.94,0,0,0-.86,0L236,309.75c-.26.15-.28.37-.06.5Zm19.2-11.09a.94.94,0,0,0,.86,0l5.92-3.41c.25-.15.27-.37.05-.5L262,295.22a1,1,0,0,0-.86,0l-5.91,3.42c-.26.14-.28.36-.06.49ZM224.34,323.5a1,1,0,0,0,.86,0l5.92-3.42c.25-.14.27-.36,0-.49l-5.66-3.27a.94.94,0,0,0-.86,0l-5.91,3.41c-.26.15-.28.37-.05.5Zm8.65-5a1,1,0,0,0,.86,0l5.91-3.42c.25-.14.28-.36.05-.49l-5.66-3.27a.92.92,0,0,0-.85,0l-5.92,3.41c-.25.15-.27.37,0,.5Zm44.88-28.31a1,1,0,0,0,.86,0l5.91-3.42c.25-.14.27-.36.05-.49l-1.51-.87a.92.92,0,0,0-.85,0l-5.92,3.41c-.25.15-.27.37-.05.5Zm25.93-15a1,1,0,0,0,.86,0l5.91-3.42c.26-.14.28-.37.06-.49l-1.51-.87a.94.94,0,0,0-.86,0l-5.91,3.41c-.26.15-.28.37-.06.5Zm11.89,6.86a1,1,0,0,0,.86,0l5.91-3.42c.25-.14.28-.36.05-.49l-5.66-3.27a1,1,0,0,0-.86,0l-5.91,3.42c-.25.14-.27.36-.05.49Zm16.46,19,5.92-3.41c.25-.15.27-.37.05-.5l-5.66-3.27a1,1,0,0,0-.86,0l-5.91,3.42c-.25.14-.28.37-.05.49l5.65,3.27A.94.94,0,0,0,332.15,301.05Zm-45.64-15.84a1,1,0,0,0,.86,0l5.92-3.42c.25-.14.27-.36,0-.49l-1.51-.87a.94.94,0,0,0-.86,0l-5.91,3.41c-.26.15-.28.37-.06.5ZM215.7,328.49a1,1,0,0,0,.86,0l5.91-3.42c.25-.14.28-.36.05-.49l-5.66-3.27a1,1,0,0,0-.85,0l-5.92,3.42c-.25.14-.27.36-.05.49Z" style="fill:#455a64"></path><g id="freepik--tuch-pad--inject-187"><polygon points="240.46 377.68 241.75 378.42 275.9 398.14 336.65 363.07 337.92 362.35 302.47 341.89 240.46 377.68" style="fill:#263238"></polygon><polygon points="335.87 363.52 302.47 344.25 242.52 378.87 275.9 398.14 335.87 363.52" style="fill:#37474f"></polygon></g><path d="M71.88,365c-2.47-1.14-3.14-3.1-3.37-6.55L57.46,196.8a11.21,11.21,0,0,1,5.2-9.51L268.23,68.61c3.11-1.8,5.39-2.77,8.26-.81s2.94,3,3.17,6.5l11,161.61a11.21,11.21,0,0,1-5.21,9.51L79.93,364.1C76.82,365.9,75.06,366.43,71.88,365Z" style="fill:#37474f"></path><path d="M279.66,74.3c-.23-3.45-3-4.79-6.06-3L68,190a10.61,10.61,0,0,0-3.85,4.13l-5.36-2.7h0a10.8,10.8,0,0,1,3.87-4.13L268.23,68.61c3.11-1.8,5.4-2.79,8.26-.81C279.51,69.89,279.43,70.85,279.66,74.3Z" style="fill:#455a64"></path><path d="M79.52,364.34c-2.84,1.67-4.63,1.88-7.64.62-2.3-1-3.13-3.1-3.37-6.55L57.46,196.79a10.07,10.07,0,0,1,1.35-5.36l5.37,2.68h0a10.09,10.09,0,0,0-1.35,5.36l11,161.62C74.09,364.3,76.86,365.91,79.52,364.34Z" style="fill:#263238"></path><path d="M71.6,196.16,269.43,82c1.87-1.08,3.5-.27,3.64,1.8l10.3,150.77a6.69,6.69,0,0,1-3.12,5.7L82.42,354.44c-1.86,1.07-3.49.27-3.63-1.81L68.48,201.87A6.73,6.73,0,0,1,71.6,196.16Z"></path><path d="M71.6,196.16a6.73,6.73,0,0,0-3.12,5.71L78.62,350.12,274.19,237.24a6.72,6.72,0,0,0,3.12-5.7L267.17,83.28Z" style="fill:#fff"></path></g><g id="freepik--Character--inject-187"><path id="freepik--Bottom--inject-187" d="M121.84,241.1c-9.78,29.65-7.33,46.75-6.27,63.43s1.51,23.5,1.51,23.5L225.4,265.51s-1.55-15.65-4.07-24.68Z" style="fill:#263238"></path><g id="freepik--Top--inject-187"><path d="M312.69,149.15c-1.06.12-1.8.82-3.8,1.75,2-1.67,4.94-4.15,6.21-7.19a3.37,3.37,0,0,0,.27-1.65c-.09-.46-.53-1.72-1.3-1.88,0,0,.95-1.41,1.8-2.62.69-1,2.09-3.36.35-3.95-1.38-.47-3.12.42-4.93,1.81a5.05,5.05,0,0,0,1.28-2.82c-.27-1.89-1.63-2.68-5-.33a101.67,101.67,0,0,1-10.51,6.84c-3.18,1.68-7.5,3.74-11.18,3a1.56,1.56,0,0,1-1.07-.71,1.66,1.66,0,0,1-.19-.69,5.17,5.17,0,0,1,.73-2.74c1.49-2.87,4.69-6.8,1.78-9.72-.51-.52-1.26-.87-1.82-.27-2.21,2.39-4.53,4.74-6.75,7.12a57.2,57.2,0,0,0-6.32,7.34c-1.93,3-3.53,6.07-6.36,10.25s-6,8-13.6,15.4c-4.2,4.08-11.13,11.42-11.13,11.42s-14.1-21.54-19.69-30.11c-10.21-15.63-18.23-19.21-33.4-20l7.19,37s19.18,33.1,26.46,43.78,13.07,12,17.34,11.12c13.34-2.95,21.66-21.23,38.22-48.35a16.48,16.48,0,0,1,11.08-7.76c2.49-.46,5.25-1.17,6.88-1.56a46.12,46.12,0,0,0,7.24-2.72c3.84-1.87,3.93-1.57,9.07-6.62.64-.62,3.16-3.38,2.83-4.21A1.48,1.48,0,0,0,312.69,149.15Z" style="fill:#ffa8a7"></path><path d="M308.89,150.9a39,39,0,0,1-5.29,2.82c-1.79.85-3.69,1.49-5.54,2.36a23,23,0,0,0,5.85-1.68A14.89,14.89,0,0,0,308.89,150.9Z" style="fill:#f28f8f"></path><path d="M273.88,158.75a5,5,0,0,1,.1-1.16,7.33,7.33,0,0,1,.86-2.11,9.94,9.94,0,0,1,3.07-3.25,9.7,9.7,0,0,1,9.47-.63c.08,0,.2.33,0,.32-3.08-.27-6.15-.39-8.86,1.37a10.21,10.21,0,0,0-4,6.65c-.05.24-.3.19-.37,0A4.21,4.21,0,0,1,273.88,158.75Z" style="fill:#f28f8f"></path><path d="M294.21,146a68.09,68.09,0,0,0,8.68-4.81c2.67-1.64,5.24-3.48,7.81-5.28,0,0,.08.06.06.08a39.44,39.44,0,0,1-8.05,6.2,57.15,57.15,0,0,1-8.46,3.87S294.18,146,294.21,146Z" style="fill:#f28f8f"></path><path d="M294.93,151.46a68.58,68.58,0,0,0,8.68-4.8c1.07-.66,2.13-1.35,3.17-2.06a35.85,35.85,0,0,0,3-2.15l.87-.73a8.83,8.83,0,0,1,1.13-.91,4.22,4.22,0,0,1,1.42-.5s.12,0,.1.06a5.07,5.07,0,0,0-1.64.94,11,11,0,0,0-.93.88c-.26.27-.54.5-.83.76-.88.79-1.8,1.53-2.76,2.24-1.2.88-2.45,1.7-3.73,2.47a56.63,56.63,0,0,1-8.46,3.86S294.9,151.47,294.93,151.46Z" style="fill:#f28f8f"></path><path d="M186.55,128.28c16.81-.65,22.92,3.27,30,12.46,6.71,8.66,24.8,37.76,24.8,37.76l12.27-11.79s-.53,4,4.57,10.9a17.77,17.77,0,0,0,12.49,7.18S263.76,198.1,257,207.33s-13.87,16.25-22.32,14.31-12.91-9.54-18.52-18.44-21.79-37-21.79-37Z" style="fill:#37474f"></path><path d="M229.41,203.58c.88-8.93,5.58-20.21,12-25.08,0,0-.73-1.18-1.95-3.11C229.72,183.33,228.63,195.6,229.41,203.58Z" style="fill:#263238"></path><g id="freepik--Chest--inject-187"><path d="M122.13,247.19c1.21-13.56,10.48-23.69,7.63-36.77-3.28-15-7.71-27.76-8.75-34.33-2.28-14.53,1.16-31.44,3.24-38.46,11.1-3.06,19-4.68,19-4.68s12.75-2.21,32.35-3.79l10.92-.51c10.3,3.94,23.85,19,32,31.2,9.5,14.3,4.89,29.8-4.88,34.88l-1.07,17.05s6.38,21.43,7.74,32C218.69,254,198.7,267,169.84,266.61,153.2,266.39,131.78,259.84,122.13,247.19Z" style="fill:#f0f0f0"></path><path d="M182.18,194.2s-7.36,9.9-22.86,8.82c-16-1.12-19.64-14.18-19.64-14.18s0,17.31,19.14,18.65C176.44,208.73,182.18,194.2,182.18,194.2Z" style="fill:#e0e0e0"></path></g><path d="M106.76,74.71a13.9,13.9,0,0,1,.49-4.06,10.36,10.36,0,0,1,3.85-5.47c2.09-1.5,4.76-2.24,6.44-4.19,1.21-1.42,1.73-3.28,2.6-4.93A14.23,14.23,0,0,1,131,48.78,16.65,16.65,0,0,1,141.19,51c1.46.85,2.49,2,4.09,2.56a24.24,24.24,0,0,1,4.93,2.06c4.62,2.88,7.28,7.71,5,13-.79,1.79-2.17,3.55-1.79,5.47a6.28,6.28,0,0,0,1.13,2.23c2.34,3.35,5,6.6,6.38,10.44a13.27,13.27,0,0,1,.35,8.79c-1,2.77-4.1,4.24-4.81,7a9.92,9.92,0,0,0-.1,3.44,45.44,45.44,0,0,1,.38,7,11.1,11.1,0,0,1-2.32,6.49c-2.68,3.16-7.36,3.75-11.49,3.28a3.61,3.61,0,0,0-2.35.23,4.77,4.77,0,0,0-1.3,1.8c-1.4,2.4-4.3,3.54-7.07,3.8a12.49,12.49,0,0,1-7.81-1.65,8.44,8.44,0,0,1-4-6.67,2.8,2.8,0,0,0-1.19,3,8.39,8.39,0,0,0,1.56,3.06,7.61,7.61,0,0,1-6.06-3.19c-2.25-3.35-.08-6.13.58-9.48a6.39,6.39,0,0,0-.83-4.33,12,12,0,0,0-3-3.31c-2.47-2-4.75-3.43-5.5-6.66-.58-2.52-.3-5.42,2.25-6.7a3.6,3.6,0,0,0-3.48,2.14,10.75,10.75,0,0,0-.84,4.33,9.35,9.35,0,0,1-2.51-7.21,9.58,9.58,0,0,1,3.18-6.16c1.6-1.47,2.65-2.7,2.6-5C107,78.72,106.78,76.7,106.76,74.71Z" style="fill:#263238"></path><path d="M143.59,50.43c-8.24-1.32-16.49,10.25-13,20.59S156.48,51.74,143.59,50.43Z" style="fill:#76ABAE"></path><g id="freepik--Head--inject-187"><path d="M207.62,60.08c-.62-9.55-11.26-10.8-14.12-10.69-3.9.15-8.25-2.27-10.58-5.47A13.57,13.57,0,0,0,170.13,39c-7.74,1.38-6.24,4.69-12.82,6.35-5.88,1.48-9.41,2.22-15.32,6.38-12.13,8.52-15.59,25.64-8.81,42.05,3.48,8.44,8.13,12.62,13.78,19.83l6,.48c2.35-4.92,7.35-3.57,12.11-4.36,3.08-1.1,5-4.3,8.11-5.4s6.58.17,9.89-.15c2.57-.24,5.24-1.55,7.82-.67,5.82,2.9,15.26-1.6,15.12-8.58-.06-2.12-1.05-4.24-.49-6.28.75-2.68,3.76-4,5.49-6.12a7.25,7.25,0,0,0,.24-8.7C207.29,68.85,208,65.51,207.62,60.08Z" style="fill:#263238"></path><path d="M177.44,129.61c-2.39.07-2.33-1.49-2.3-2.39l.07-4.09c5.07.39,9.62-.22,12.66-2.14,5.12-3.22,9.74-8.1,10.77-25,.41-6.83-1.34-10.16-1.13-11.69a43.32,43.32,0,0,0,.44-9.45c-.22-3-.77-5-3.43-6.79a22.26,22.26,0,0,0-4.94-2.17,14.92,14.92,0,0,1-3.51-1.56,4.9,4.9,0,0,1-2.2-3,11.32,11.32,0,0,0-.4,5.59,5.34,5.34,0,0,0,3.56,4,7.39,7.39,0,0,1-9.87-3.45c-.48-1-.74-2.09-1.2-3.1C173,58,165,59,160.19,62.41a1.24,1.24,0,0,0-.45.46,1.41,1.41,0,0,0,0,.84,14.77,14.77,0,0,1-7.58,15.48,17.11,17.11,0,0,1,1.29,6.67,7.19,7.19,0,0,1-.6,3.11,3.42,3.42,0,0,1-2.39,1.93c-2.4.37-2.71-2.57-3.83-4a9.64,9.64,0,0,0-4.14-3.19,7.2,7.2,0,0,0-8.32,2c-3.19,4-3.61,10.54,1.45,16.91,4.93,6.21,11.19,2.94,11.36,1.77,0,0-.33,18.72-.45,21.86s-.19,6-4.18,7c0,0,8.15,8.33,25.64,6.82C180.9,138.86,177.44,129.61,177.44,129.61Z" style="fill:#ffa8a7"></path><path d="M139,100.22a2.77,2.77,0,1,0,3-2.52A2.77,2.77,0,0,0,139,100.22Z" style="fill:#76ABAE"></path><path d="M195.71,79.64,189,77.27a3.4,3.4,0,0,1,4.41-2.22A3.72,3.72,0,0,1,195.71,79.64Z" style="fill:#263238"></path><path d="M163.07,78.92l6.77-2.37a3.44,3.44,0,0,0-4.45-2.27A3.77,3.77,0,0,0,163.07,78.92Z" style="fill:#263238"></path><path d="M175.21,123.13c-11.19-1.46-21.86-4.85-24.4-11.8a11.51,11.51,0,0,0,6.11,9.76,40.63,40.63,0,0,0,18.23,5.34Z" style="fill:#f28f8f"></path><polygon points="189.23 95.59 179.77 99.77 178.39 81.74 189.23 95.59" style="fill:#f28f8f"></polygon><path d="M169.83,101.88a5.68,5.68,0,1,0,11,3Z" style="fill:#b16668"></path><path d="M173.83,108.84a5.63,5.63,0,0,0,3.38-.14,6.81,6.81,0,0,0-4.76-4.64,6.62,6.62,0,0,0-2.79-.16A5.68,5.68,0,0,0,173.83,108.84Z" style="fill:#f28f8f"></path><circle cx="168.74" cy="86.41" r="2.98" style="fill:#263238"></circle><circle cx="190.2" cy="86.59" r="2.98" style="fill:#263238"></circle></g><path d="M143.58,83.61l-8.58-2A66.27,66.27,0,0,1,136.42,64c1.58-6.58,6.66-13.18,11.4-15.81A25.34,25.34,0,0,1,158.44,45a18.28,18.28,0,0,0-5.05,2.71c-1.86,1.39-6.09,4.77-8.69,13C141.88,69.73,143.58,83.61,143.58,83.61Z" style="fill:#455a64"></path><path d="M151.85,101c2.43-7.29.34-17.9-4.67-23.66a11.12,11.12,0,0,0-4.72-3.4,6.5,6.5,0,0,0-3.52-.25l-3.94.8c-2.68.57-4.94,2.91-6.18,6.63-2.43,7.29-.34,17.9,4.67,23.66a11.09,11.09,0,0,0,4.72,3.4,6.6,6.6,0,0,0,3.55.25l3.89-.8C148.34,107,150.61,104.69,151.85,101Z" style="fill:#37474f"></path><path d="M138.21,108.14a11.09,11.09,0,0,1-4.72-3.4c-5-5.76-7.1-16.37-4.67-23.66,1.76-5.28,5.58-7.78,9.73-6.38a11.15,11.15,0,0,1,4.72,3.41c5,5.75,7.1,16.37,4.67,23.65C146.18,107.05,142.36,109.55,138.21,108.14Z" style="fill:#263238"></path><path d="M147.14,101.49c2.34-7,.33-17.25-4.51-22.81-2.42-2.79-5.08-3.87-7.44-3.38l-1.94.4c-2.36.48-4.4,2.54-5.58,6.06-2.35,7-.33,17.25,4.5,22.81,2.42,2.78,5.09,3.87,7.44,3.38l2-.4C143.92,107.07,146,105,147.14,101.49Z" style="fill:#f0f0f0"></path><path d="M140.68,79.08c4.83,5.56,6.85,15.77,4.5,22.81s-8.17,8.24-13,2.68-6.85-15.77-4.5-22.81S135.84,73.52,140.68,79.08Z" style="fill:#e0e0e0"></path><path d="M145.18,101.89c2.35-7,.33-17.25-4.5-22.81-2.42-2.78-5.08-3.87-7.43-3.38-.66.13-1.87.47-2.53.6-2.35.49-4.39,2.54-5.56,6.06-2.35,7-.33,17.25,4.5,22.81,2.42,2.78,5.08,3.87,7.43,3.39.66-.14,1.87-.47,2.52-.61C142,107.47,144,105.41,145.18,101.89Z" style="fill:#76ABAE"></path><path d="M138.17,79.68c4.83,5.56,6.85,15.77,4.5,22.81s-8.17,8.24-13,2.68-6.85-15.77-4.5-22.81S133.33,74.12,138.17,79.68Z" style="fill:#fff;opacity:0.15"></path><path d="M134.73,86.26a13.61,13.61,0,0,1,2.36,12c-1.23,3.7-4.29,4.33-6.83,1.41a13.6,13.6,0,0,1-2.36-12C129.13,84,132.19,83.34,134.73,86.26Z" style="fill:#263238"></path><path d="M136.71,90.74,132.19,93l-1.67-8.47c1.24-.26,2.64.31,3.91,1.77A11.89,11.89,0,0,1,136.71,90.74Z" style="fill:#455a64"></path><path d="M136.79,98.31c-.61,1.84-1.69,2.93-2.92,3.18L132.19,93l4.52-2.28A13.2,13.2,0,0,1,136.79,98.31Z" style="fill:#37474f"></path><path d="M133.87,101.49c-1.24.25-2.64-.32-3.91-1.78a11.76,11.76,0,0,1-2.29-4.42L132.19,93Z" style="fill:#455a64"></path><path d="M132.19,93l-4.52,2.27a13.34,13.34,0,0,1-.08-7.56c.62-1.85,1.7-2.93,2.93-3.18Z" style="fill:#37474f"></path><path d="M146.36,128.57c-1,5.09,6.56,21,11.46,36.55s6.58,31.35,6.1,52.64-2,53-2,53-34.38-8.09-42.75-22.57c1.82-8.72,6.28-21.26,7.94-26.63s2.27-10.61.72-15.87-8-21.89-8.61-35.29,4.42-33.62,4.42-33.62,11-2.75,15.19-3.7S145.31,131.5,146.36,128.57Z" style="fill:#76ABAE"></path><path d="M175.14,127.22a7.82,7.82,0,0,0,1,4.06c.75,1.49,16.63,16.63,23.87,26.84s11.15,20.07,11.43,32.23.56,67.53.56,67.53,6.68-2.23,11.33-12.63c-.47-9.2-4.57-23.17-5.5-31.63a133.1,133.1,0,0,1-.5-17.78,23.45,23.45,0,0,0,7.58-15.15c.78-10.69-2.23-18.57-9.48-27.58s-18.83-21.21-28.86-24.83C181.91,128.55,176,128.74,175.14,127.22Z" style="fill:#76ABAE"></path><g id="freepik--Arm--inject-187"><path d="M87,228c.31,9.2,1.78,10.68,12.06,15.46s36.05,11.77,56.29,12.95c3,.17,6,.29,9.07.27a71.63,71.63,0,0,0,14.17-1.52c6.61-1.39,11-2.44,16.78-6.08a12.25,12.25,0,0,0,4.72-4.7c.68-1.4.92-3,1.62-4.37s1.81-2.53,1.86-4a7.15,7.15,0,0,1,.05-2.12c.29-.78,1.13-1.2,1.71-1.81a3.31,3.31,0,0,0,.32-4,5.47,5.47,0,0,0-3.6-1.93,2.3,2.3,0,0,1-1-.35,4.43,4.43,0,0,1-.64-.79,3.08,3.08,0,0,0-2.36-1,8,8,0,0,0-2.59.49c-3.39,1.08-6.62,2.67-10,3.73a22.19,22.19,0,0,1-5.86,1.29,12.35,12.35,0,0,1-2.85,0c-1.53-.19-2.48-1.07-2-2.71.92-2.85,2.83-5.46,3.11-8.47a7.29,7.29,0,0,0-.25-3.25c-.18-.47-1.15-2.09-1.84-1.88-1.77.53-2.65,2.88-7.92,8.54-4,4.3-8,9.82-14.53,9.53-11.2-.49-34.54-11.44-34.54-11.44L117,208.24Z" style="fill:#ffa8a7"></path><path d="M119.92,218.71l14.59-36.27s3.7-28.78-10.9-45.67c-13.62,2.94-17,12.07-22.36,30.11C93.94,191.52,87.63,215.75,86.54,228c-.17,5.75.95,8.72,3.7,11.08s13.84,7.09,20.62,9.17,24.54,6.16,27.93,6.66c-1.93-4.75-1.92-12.44,0-17.38a15.26,15.26,0,0,1,7.29-7.61Z" style="fill:#37474f"></path><path d="M199.05,241.42a39.07,39.07,0,0,1-5.22,2.94c-1.78.89-3.67,1.57-5.49,2.48a23,23,0,0,0,5.81-1.81A14.82,14.82,0,0,0,199.05,241.42Z" style="fill:#f28f8f"></path><path d="M183.06,236.92a67.3,67.3,0,0,0,9.13-3.89c2.83-1.36,5.57-2.93,8.31-4.45,0,0,.08.06.05.08a39.43,39.43,0,0,1-8.64,5.35,58.17,58.17,0,0,1-8.81,3S183,236.93,183.06,236.92Z" style="fill:#f28f8f"></path><path d="M183.92,243.25a69.15,69.15,0,0,0,9.13-3.89c1.13-.55,2.39-1.23,4.31-2.24A35.39,35.39,0,0,0,202.3,234a3.62,3.62,0,0,1,.86-.53c0,.15-.1.28-.21.38a26.9,26.9,0,0,1-6.22,4.46c-1.3.73-2.61,1.44-4,2.07a55.8,55.8,0,0,1-8.82,3S183.89,243.26,183.92,243.25Z" style="fill:#f28f8f"></path></g><path d="M203.63,107.4a5.28,5.28,0,0,1-5.46,4.33,10.14,10.14,0,0,1-1.3-.12l.13-.76c3.48.58,5.49-1.45,5.88-3.58.42-2.34-.93-5.17-4.64-6.69,0-.27.06-.52.09-.81C202.61,101.43,204.13,104.7,203.63,107.4Z" style="fill:#37474f"></path><path d="M195.13,113.57l-3.28-.69a2.59,2.59,0,0,1-2-3.08h0a2.59,2.59,0,0,1,3.08-2l3.27.69a2.59,2.59,0,0,1,2,3.08h0A2.58,2.58,0,0,1,195.13,113.57Z" style="fill:#263238"></path></g></g></g><g id="freepik--speech-bubble--inject-187"><g id="freepik--speech-bubble--inject-187"><g id="freepik--speech-bubble--inject-187"><path d="M70.43,135.34l0-17.58,14.79-1.56a1.41,1.41,0,0,1,.85.18l7.74,4.49a1.39,1.39,0,0,1,.32,2.17l-16,16.79Z" style="fill:#76ABAE"></path><path d="M24.06,170.63V131.05a2.73,2.73,0,0,1,1.24-2.14l44.35-25.56a2.72,2.72,0,0,1,2.47,0l6.9,4.07a2.77,2.77,0,0,1,1.23,2.16v39.57A2.74,2.74,0,0,1,79,151.32L34.66,176.87a2.72,2.72,0,0,1-2.47,0l-6.89-4.08A2.77,2.77,0,0,1,24.06,170.63Z" style="fill:#76ABAE"></path><path d="M34.46,177c-.59.23-1-.1-1-.82V136.58a2.61,2.61,0,0,1,.37-1.22l-9.39-5.48a2.49,2.49,0,0,0-.34,1.17v39.58a2.77,2.77,0,0,0,1.24,2.16l6.89,4.07A2.76,2.76,0,0,0,34.46,177Z" style="opacity:0.15"></path><path d="M93,120.7,80.25,122V109.6c0-.79-.56-1.11-1.24-.72L34.66,134.43a2.77,2.77,0,0,0-1.24,2.15v39.57c0,.79.56,1.12,1.24.72L79,151.32a2.74,2.74,0,0,0,1.24-2.15v-11.5L94.15,123A1.39,1.39,0,0,0,93,120.7Z" style="fill:#76ABAE"></path><path d="M93,120.7,80.25,122V109.6c0-.79-.56-1.11-1.24-.72L34.66,134.43a2.77,2.77,0,0,0-1.24,2.15v39.57c0,.79.56,1.12,1.24.72L79,151.32a2.74,2.74,0,0,0,1.24-2.15v-11.5L94.15,123A1.39,1.39,0,0,0,93,120.7Z" style="fill:#fff;opacity:0.35000000000000003"></path></g><path d="M43.48,145.86a7.31,7.31,0,0,0-3.06,5.84c0,2.25,1.37,3.29,3.06,2.31a7.31,7.31,0,0,0,3.06-5.84C46.54,145.92,45.17,144.88,43.48,145.86Zm14.32-8.28a7.35,7.35,0,0,0-3.06,5.85c0,2.25,1.37,3.29,3.06,2.31a7.31,7.31,0,0,0,3.06-5.84C60.86,137.64,59.49,136.61,57.8,137.58Zm14.33-8.27a7.35,7.35,0,0,0-3.06,5.85c0,2.25,1.37,3.29,3.06,2.31a7.31,7.31,0,0,0,3.06-5.84C75.19,129.37,73.82,128.34,72.13,129.31Z" style="fill:#fff"></path></g></g></svg>
